<svg width="394" height="446" viewBox="0 0 394 446" fill="none" xmlns="http://www.w3.org/2000/svg">
<g filter="url(#filter0_f_102_20)">
<rect x="90" y="90" width="214" height="266" rx="30" fill="url(#paint0_linear_102_20)"/>
</g>
<rect x="81" y="66" width="214" height="266" rx="30" fill="url(#paint1_linear_102_20)"/>
<mask id="mask0_102_20" style="mask-type:alpha" maskUnits="userSpaceOnUse" x="80" y="65" width="215" height="268">
<rect x="80.991" y="65.6193" width="213.538" height="266.425" rx="30" fill="#ED713C"/>
</mask>
<g mask="url(#mask0_102_20)">
<path opacity="0.1" d="M188.168 345.076C188.168 425.214 122.01 490.696 39.7561 490.696C-42.498 490.696 -108.656 425.214 -108.656 345.076C-108.656 264.938 -42.498 199.456 39.7561 199.456C122.01 199.456 188.168 264.938 188.168 345.076Z" fill="black" stroke="black" stroke-width="36"/>
<path opacity="0.1" d="M498.902 27.2483C498.902 129.49 429.679 206.895 350.49 206.895C271.302 206.895 202.078 129.49 202.078 27.2483C202.078 -74.9935 271.302 -152.399 350.49 -152.399C429.679 -152.399 498.902 -74.9935 498.902 27.2483Z" fill="black" stroke="black" stroke-width="36"/>
</g>
<path d="M236.606 278.886C236.606 277.617 236.819 276.627 237.244 275.916C237.677 275.197 238.418 274.838 239.466 274.838C240.515 274.838 241.252 275.197 241.677 275.916C242.11 276.627 242.326 277.617 242.326 278.886C242.326 280.169 242.11 281.174 241.677 281.9C241.252 282.619 240.515 282.978 239.466 282.978C238.418 282.978 237.677 282.619 237.244 281.9C236.819 281.174 236.606 280.169 236.606 278.886ZM241.094 278.886C241.094 278.292 241.054 277.79 240.973 277.379C240.9 276.968 240.746 276.635 240.511 276.378C240.277 276.114 239.928 275.982 239.466 275.982C239.004 275.982 238.656 276.114 238.421 276.378C238.187 276.635 238.029 276.968 237.948 277.379C237.875 277.79 237.838 278.292 237.838 278.886C237.838 279.502 237.875 280.019 237.948 280.437C238.022 280.855 238.176 281.192 238.41 281.449C238.652 281.706 239.004 281.834 239.466 281.834C239.928 281.834 240.277 281.706 240.511 281.449C240.753 281.192 240.911 280.855 240.984 280.437C241.058 280.019 241.094 279.502 241.094 278.886ZM245.215 280.822C245.288 281.189 245.446 281.467 245.688 281.658C245.93 281.849 246.256 281.944 246.667 281.944C247.188 281.944 247.569 281.739 247.811 281.328C248.053 280.917 248.174 280.217 248.174 279.227C247.998 279.476 247.749 279.671 247.426 279.81C247.111 279.942 246.766 280.008 246.392 280.008C245.915 280.008 245.483 279.913 245.094 279.722C244.705 279.524 244.397 279.234 244.17 278.853C243.95 278.464 243.84 277.995 243.84 277.445C243.84 276.638 244.075 275.997 244.544 275.52C245.021 275.036 245.673 274.794 246.502 274.794C247.499 274.794 248.207 275.128 248.625 275.795C249.05 276.455 249.263 277.471 249.263 278.842C249.263 279.788 249.182 280.562 249.021 281.163C248.867 281.764 248.596 282.219 248.207 282.527C247.818 282.835 247.279 282.989 246.59 282.989C245.805 282.989 245.2 282.784 244.775 282.373C244.35 281.962 244.111 281.445 244.06 280.822H245.215ZM246.612 278.952C247.052 278.952 247.397 278.816 247.646 278.545C247.903 278.266 248.031 277.9 248.031 277.445C248.031 276.939 247.895 276.547 247.624 276.268C247.36 275.982 246.997 275.839 246.535 275.839C246.073 275.839 245.706 275.986 245.435 276.279C245.171 276.565 245.039 276.943 245.039 277.412C245.039 277.859 245.167 278.23 245.424 278.523C245.688 278.809 246.084 278.952 246.612 278.952ZM254.871 272.616L251.879 284.925H250.647L253.628 272.616H254.871ZM256.979 281.295C257.683 280.686 258.237 280.188 258.64 279.799C259.051 279.403 259.392 278.992 259.663 278.567C259.934 278.142 260.07 277.716 260.07 277.291C260.07 276.851 259.964 276.506 259.751 276.257C259.546 276.008 259.219 275.883 258.772 275.883C258.339 275.883 258.002 276.022 257.76 276.301C257.525 276.572 257.401 276.939 257.386 277.401H256.176C256.198 276.565 256.447 275.927 256.924 275.487C257.408 275.04 258.02 274.816 258.761 274.816C259.56 274.816 260.184 275.036 260.631 275.476C261.086 275.916 261.313 276.503 261.313 277.236C261.313 277.764 261.177 278.274 260.906 278.765C260.642 279.249 260.323 279.685 259.949 280.074C259.582 280.455 259.113 280.899 258.541 281.405L258.046 281.845H261.533V282.89H256.187V281.977L256.979 281.295ZM267.805 276.059H264.12V278.248C264.274 278.043 264.501 277.87 264.802 277.731C265.11 277.592 265.436 277.522 265.781 277.522C266.397 277.522 266.895 277.654 267.277 277.918C267.665 278.182 267.94 278.516 268.102 278.919C268.27 279.322 268.355 279.748 268.355 280.195C268.355 280.738 268.248 281.222 268.036 281.647C267.83 282.065 267.519 282.395 267.101 282.637C266.69 282.879 266.184 283 265.583 283C264.783 283 264.142 282.802 263.658 282.406C263.174 282.01 262.884 281.486 262.789 280.833H264.01C264.09 281.178 264.27 281.453 264.549 281.658C264.827 281.856 265.176 281.955 265.594 281.955C266.114 281.955 266.503 281.797 266.76 281.482C267.024 281.167 267.156 280.749 267.156 280.228C267.156 279.7 267.024 279.297 266.76 279.018C266.496 278.732 266.107 278.589 265.594 278.589C265.234 278.589 264.93 278.681 264.681 278.864C264.439 279.04 264.263 279.282 264.153 279.59H262.965V274.959H267.805V276.059Z" fill="white"/>
<path d="M177.585 218.875V217.523H180.289V227H178.794V218.875H177.585ZM183.144 224.985C183.976 224.266 184.63 223.676 185.107 223.217C185.592 222.749 185.995 222.264 186.316 221.761C186.637 221.258 186.797 220.756 186.797 220.253C186.797 219.733 186.671 219.326 186.42 219.031C186.177 218.736 185.792 218.589 185.263 218.589C184.752 218.589 184.353 218.754 184.067 219.083C183.79 219.404 183.642 219.837 183.625 220.383H182.195C182.221 219.395 182.516 218.641 183.079 218.121C183.651 217.592 184.375 217.328 185.25 217.328C186.195 217.328 186.931 217.588 187.46 218.108C187.997 218.628 188.266 219.321 188.266 220.188C188.266 220.812 188.106 221.414 187.785 221.995C187.473 222.567 187.096 223.083 186.654 223.542C186.221 223.993 185.666 224.517 184.99 225.115L184.405 225.635H188.526V226.87H182.208V225.791L183.144 224.985ZM191.427 222.047C190.526 221.596 190.075 220.886 190.075 219.915C190.075 219.447 190.192 219.018 190.426 218.628C190.66 218.238 191.011 217.93 191.479 217.705C191.947 217.471 192.519 217.354 193.195 217.354C193.862 217.354 194.43 217.471 194.898 217.705C195.375 217.93 195.73 218.238 195.964 218.628C196.198 219.018 196.315 219.447 196.315 219.915C196.315 220.4 196.189 220.829 195.938 221.202C195.695 221.566 195.37 221.848 194.963 222.047C195.457 222.229 195.847 222.528 196.133 222.944C196.419 223.351 196.562 223.832 196.562 224.387C196.562 224.95 196.419 225.449 196.133 225.882C195.847 226.315 195.448 226.649 194.937 226.883C194.426 227.117 193.845 227.234 193.195 227.234C192.545 227.234 191.964 227.117 191.453 226.883C190.95 226.649 190.556 226.315 190.27 225.882C189.984 225.449 189.841 224.95 189.841 224.387C189.841 223.824 189.984 223.338 190.27 222.931C190.556 222.524 190.942 222.229 191.427 222.047ZM194.898 220.097C194.898 219.612 194.746 219.239 194.443 218.979C194.14 218.719 193.724 218.589 193.195 218.589C192.675 218.589 192.263 218.719 191.96 218.979C191.657 219.239 191.505 219.616 191.505 220.11C191.505 220.543 191.661 220.899 191.973 221.176C192.294 221.445 192.701 221.579 193.195 221.579C193.689 221.579 194.096 221.44 194.417 221.163C194.738 220.886 194.898 220.53 194.898 220.097ZM193.195 222.697C192.623 222.697 192.155 222.84 191.791 223.126C191.436 223.403 191.258 223.806 191.258 224.335C191.258 224.829 191.431 225.232 191.778 225.544C192.125 225.847 192.597 225.999 193.195 225.999C193.784 225.999 194.248 225.843 194.586 225.531C194.933 225.219 195.106 224.82 195.106 224.335C195.106 223.815 194.928 223.412 194.573 223.126C194.226 222.84 193.767 222.697 193.195 222.697ZM199.964 224.426C200.051 224.859 200.237 225.189 200.523 225.414C200.809 225.639 201.195 225.752 201.68 225.752C202.295 225.752 202.746 225.509 203.032 225.024C203.318 224.539 203.461 223.711 203.461 222.541C203.253 222.836 202.958 223.065 202.577 223.23C202.204 223.386 201.797 223.464 201.355 223.464C200.792 223.464 200.28 223.351 199.821 223.126C199.362 222.892 198.998 222.55 198.729 222.099C198.469 221.64 198.339 221.085 198.339 220.435C198.339 219.482 198.616 218.723 199.171 218.16C199.734 217.588 200.506 217.302 201.485 217.302C202.664 217.302 203.5 217.696 203.994 218.485C204.497 219.265 204.748 220.465 204.748 222.086C204.748 223.204 204.653 224.118 204.462 224.829C204.28 225.54 203.959 226.077 203.5 226.441C203.041 226.805 202.404 226.987 201.589 226.987C200.662 226.987 199.947 226.744 199.444 226.259C198.941 225.774 198.66 225.163 198.599 224.426H199.964ZM201.615 222.216C202.135 222.216 202.542 222.056 202.837 221.735C203.14 221.406 203.292 220.972 203.292 220.435C203.292 219.837 203.132 219.373 202.811 219.044C202.499 218.706 202.07 218.537 201.524 218.537C200.978 218.537 200.545 218.71 200.224 219.057C199.912 219.395 199.756 219.841 199.756 220.396C199.756 220.925 199.908 221.362 200.211 221.709C200.523 222.047 200.991 222.216 201.615 222.216Z" fill="white"/>
<circle cx="153" cy="228" r="3" fill="white"/>
<circle cx="124" cy="228" r="3" fill="white"/>
<circle cx="138" cy="228" r="3" fill="white"/>
<circle cx="109" cy="228" r="3" fill="white"/>
<rect x="106.026" y="263.99" width="48.5982" height="31.8552" rx="5" fill="url(#paint2_radial_102_20)"/>
<path fill-rule="evenodd" clip-rule="evenodd" d="M130.325 264.307L124.926 272.632C124.926 272.632 127.086 279.916 124.926 286.16L130.325 295.525L135.725 286.16C135.725 286.16 133.565 280.957 135.725 272.632C135.725 272.632 130.325 264.307 130.325 264.307Z" stroke="#C7C7B6" stroke-width="1.3" stroke-linejoin="bevel"/>
<path d="M106.026 273.014H124.926" stroke="#C7C7B6" stroke-width="1.3" stroke-linejoin="bevel"/>
<path d="M135.185 273.014H154.624" stroke="#C7C7B6" stroke-width="1.3" stroke-linejoin="bevel"/>
<path d="M106.026 285.756H124.926" stroke="#C7C7B6" stroke-width="1.3" stroke-linejoin="bevel"/>
<path d="M135.185 285.756H154.624" stroke="#C7C7B6" stroke-width="1.3" stroke-linejoin="bevel"/>
<path opacity="0.5" d="M106.444 195.812C106.444 194.996 106.632 194.264 107.008 193.616C107.392 192.968 107.908 192.464 108.556 192.104C109.212 191.736 109.928 191.552 110.704 191.552C111.592 191.552 112.38 191.772 113.068 192.212C113.764 192.644 114.268 193.26 114.58 194.06H112.936C112.72 193.62 112.42 193.292 112.036 193.076C111.652 192.86 111.208 192.752 110.704 192.752C110.152 192.752 109.66 192.876 109.228 193.124C108.796 193.372 108.456 193.728 108.208 194.192C107.968 194.656 107.848 195.196 107.848 195.812C107.848 196.428 107.968 196.968 108.208 197.432C108.456 197.896 108.796 198.256 109.228 198.512C109.66 198.76 110.152 198.884 110.704 198.884C111.208 198.884 111.652 198.776 112.036 198.56C112.42 198.344 112.72 198.016 112.936 197.576H114.58C114.268 198.376 113.764 198.992 113.068 199.424C112.38 199.856 111.592 200.072 110.704 200.072C109.92 200.072 109.204 199.892 108.556 199.532C107.908 199.164 107.392 198.656 107.008 198.008C106.632 197.36 106.444 196.628 106.444 195.812ZM117.549 194.348C117.749 194.012 118.013 193.752 118.341 193.568C118.677 193.376 119.073 193.28 119.529 193.28V194.696H119.181C118.645 194.696 118.237 194.832 117.957 195.104C117.685 195.376 117.549 195.848 117.549 196.52V200H116.181V193.388H117.549V194.348ZM126.847 196.532C126.847 196.78 126.831 197.004 126.799 197.204H121.747C121.787 197.732 121.983 198.156 122.335 198.476C122.687 198.796 123.119 198.956 123.631 198.956C124.367 198.956 124.887 198.648 125.191 198.032H126.667C126.467 198.64 126.103 199.14 125.575 199.532C125.055 199.916 124.407 200.108 123.631 200.108C122.999 200.108 122.431 199.968 121.927 199.688C121.431 199.4 121.039 199 120.751 198.488C120.471 197.968 120.331 197.368 120.331 196.688C120.331 196.008 120.467 195.412 120.739 194.9C121.019 194.38 121.407 193.98 121.903 193.7C122.407 193.42 122.983 193.28 123.631 193.28C124.255 193.28 124.811 193.416 125.299 193.688C125.787 193.96 126.167 194.344 126.439 194.84C126.711 195.328 126.847 195.892 126.847 196.532ZM125.419 196.1C125.411 195.596 125.231 195.192 124.879 194.888C124.527 194.584 124.091 194.432 123.571 194.432C123.099 194.432 122.695 194.584 122.359 194.888C122.023 195.184 121.823 195.588 121.759 196.1H125.419ZM127.737 196.664C127.737 196 127.873 195.412 128.145 194.9C128.425 194.388 128.801 193.992 129.273 193.712C129.753 193.424 130.285 193.28 130.869 193.28C131.301 193.28 131.725 193.376 132.141 193.568C132.565 193.752 132.901 194 133.149 194.312V191.12H134.529V200H133.149V199.004C132.925 199.324 132.613 199.588 132.213 199.796C131.821 200.004 131.369 200.108 130.857 200.108C130.281 200.108 129.753 199.964 129.273 199.676C128.801 199.38 128.425 198.972 128.145 198.452C127.873 197.924 127.737 197.328 127.737 196.664ZM133.149 196.688C133.149 196.232 133.053 195.836 132.861 195.5C132.677 195.164 132.433 194.908 132.129 194.732C131.825 194.556 131.497 194.468 131.145 194.468C130.793 194.468 130.465 194.556 130.161 194.732C129.857 194.9 129.609 195.152 129.417 195.488C129.233 195.816 129.141 196.208 129.141 196.664C129.141 197.12 129.233 197.52 129.417 197.864C129.609 198.208 129.857 198.472 130.161 198.656C130.473 198.832 130.801 198.92 131.145 198.92C131.497 198.92 131.825 198.832 132.129 198.656C132.433 198.48 132.677 198.224 132.861 197.888C133.053 197.544 133.149 197.144 133.149 196.688ZM137.022 192.512C136.774 192.512 136.566 192.428 136.398 192.26C136.23 192.092 136.146 191.884 136.146 191.636C136.146 191.388 136.23 191.18 136.398 191.012C136.566 190.844 136.774 190.76 137.022 190.76C137.262 190.76 137.466 190.844 137.634 191.012C137.802 191.18 137.886 191.388 137.886 191.636C137.886 191.884 137.802 192.092 137.634 192.26C137.466 192.428 137.262 192.512 137.022 192.512ZM137.694 193.388V200H136.326V193.388H137.694ZM141.086 194.504V198.164C141.086 198.412 141.142 198.592 141.254 198.704C141.374 198.808 141.574 198.86 141.854 198.86H142.694V200H141.614C140.998 200 140.526 199.856 140.198 199.568C139.87 199.28 139.706 198.812 139.706 198.164V194.504H138.926V193.388H139.706V191.744H141.086V193.388H142.694V194.504H141.086ZM146.616 195.812C146.616 194.996 146.804 194.264 147.18 193.616C147.564 192.968 148.08 192.464 148.728 192.104C149.384 191.736 150.1 191.552 150.876 191.552C151.764 191.552 152.552 191.772 153.24 192.212C153.936 192.644 154.44 193.26 154.752 194.06H153.108C152.892 193.62 152.592 193.292 152.208 193.076C151.824 192.86 151.38 192.752 150.876 192.752C150.324 192.752 149.832 192.876 149.4 193.124C148.968 193.372 148.628 193.728 148.38 194.192C148.14 194.656 148.02 195.196 148.02 195.812C148.02 196.428 148.14 196.968 148.38 197.432C148.628 197.896 148.968 198.256 149.4 198.512C149.832 198.76 150.324 198.884 150.876 198.884C151.38 198.884 151.824 198.776 152.208 198.56C152.592 198.344 152.892 198.016 153.108 197.576H154.752C154.44 198.376 153.936 198.992 153.24 199.424C152.552 199.856 151.764 200.072 150.876 200.072C150.092 200.072 149.376 199.892 148.728 199.532C148.08 199.164 147.564 198.656 147.18 198.008C146.804 197.36 146.616 196.628 146.616 195.812ZM155.897 196.664C155.897 196 156.033 195.412 156.305 194.9C156.585 194.388 156.961 193.992 157.433 193.712C157.913 193.424 158.441 193.28 159.017 193.28C159.537 193.28 159.989 193.384 160.373 193.592C160.765 193.792 161.077 194.044 161.309 194.348V193.388H162.689V200H161.309V199.016C161.077 199.328 160.761 199.588 160.361 199.796C159.961 200.004 159.505 200.108 158.993 200.108C158.425 200.108 157.905 199.964 157.433 199.676C156.961 199.38 156.585 198.972 156.305 198.452C156.033 197.924 155.897 197.328 155.897 196.664ZM161.309 196.688C161.309 196.232 161.213 195.836 161.021 195.5C160.837 195.164 160.593 194.908 160.289 194.732C159.985 194.556 159.657 194.468 159.305 194.468C158.953 194.468 158.625 194.556 158.321 194.732C158.017 194.9 157.769 195.152 157.577 195.488C157.393 195.816 157.301 196.208 157.301 196.664C157.301 197.12 157.393 197.52 157.577 197.864C157.769 198.208 158.017 198.472 158.321 198.656C158.633 198.832 158.961 198.92 159.305 198.92C159.657 198.92 159.985 198.832 160.289 198.656C160.593 198.48 160.837 198.224 161.021 197.888C161.213 197.544 161.309 197.144 161.309 196.688ZM165.854 194.348C166.054 194.012 166.318 193.752 166.646 193.568C166.982 193.376 167.378 193.28 167.834 193.28V194.696H167.486C166.95 194.696 166.542 194.832 166.262 195.104C165.99 195.376 165.854 195.848 165.854 196.52V200H164.486V193.388H165.854V194.348ZM168.635 196.664C168.635 196 168.771 195.412 169.043 194.9C169.323 194.388 169.699 193.992 170.171 193.712C170.651 193.424 171.183 193.28 171.767 193.28C172.199 193.28 172.623 193.376 173.039 193.568C173.463 193.752 173.799 194 174.047 194.312V191.12H175.427V200H174.047V199.004C173.823 199.324 173.511 199.588 173.111 199.796C172.719 200.004 172.267 200.108 171.755 200.108C171.179 200.108 170.651 199.964 170.171 199.676C169.699 199.38 169.323 198.972 169.043 198.452C168.771 197.924 168.635 197.328 168.635 196.664ZM174.047 196.688C174.047 196.232 173.951 195.836 173.759 195.5C173.575 195.164 173.331 194.908 173.027 194.732C172.723 194.556 172.395 194.468 172.043 194.468C171.691 194.468 171.363 194.556 171.059 194.732C170.755 194.9 170.507 195.152 170.315 195.488C170.131 195.816 170.039 196.208 170.039 196.664C170.039 197.12 170.131 197.52 170.315 197.864C170.507 198.208 170.755 198.472 171.059 198.656C171.371 198.832 171.699 198.92 172.043 198.92C172.395 198.92 172.723 198.832 173.027 198.656C173.331 198.48 173.575 198.224 173.759 197.888C173.951 197.544 174.047 197.144 174.047 196.688Z" fill="white"/>
<path d="M130.202 98.8851H148.121V130.541H130.202V98.8851Z" fill="#B27BFF"/>
<path d="M131.34 114.713C131.34 108.281 134.412 102.576 139.133 98.8851C135.663 96.2005 131.283 94.5786 126.505 94.5786C115.185 94.5786 106.026 103.583 106.026 114.713C106.026 125.843 115.185 134.848 126.505 134.848C131.283 134.848 135.663 133.226 139.133 130.541C134.412 126.906 131.34 121.145 131.34 114.713Z" fill="#9E59FF"/>
<path d="M172.296 114.713C172.296 125.843 163.138 134.848 151.818 134.848C147.039 134.848 142.659 133.226 139.19 130.541C143.968 126.85 146.983 121.145 146.983 114.713C146.983 108.281 143.911 102.577 139.19 98.8851C142.659 96.2005 147.039 94.5786 151.818 94.5786C163.138 94.5786 172.296 103.639 172.296 114.713H172.296Z" fill="#9E59FF"/>
<defs>
<filter id="filter0_f_102_20" x="0" y="2.28882e-05" width="394" height="446" filterUnits="userSpaceOnUse" color-interpolation-filters="sRGB">
<feFlood flood-opacity="0" result="BackgroundImageFix"/>
<feBlend mode="normal" in="SourceGraphic" in2="BackgroundImageFix" result="shape"/>
<feGaussianBlur stdDeviation="45" result="effect1_foregroundBlur_102_20"/>
</filter>
<linearGradient id="paint0_linear_102_20" x1="197.738" y1="45.9" x2="218.331" y2="388.337" gradientUnits="userSpaceOnUse">
<stop stop-color="#423EE0"/>
<stop offset="1" stop-color="#812DE2"/>
</linearGradient>
<linearGradient id="paint1_linear_102_20" x1="188.738" y1="21.9" x2="209.331" y2="364.337" gradientUnits="userSpaceOnUse">
<stop stop-color="#9C2CF3"/>
<stop offset="1" stop-color="#3A49F9"/>
</linearGradient>
<radialGradient id="paint2_radial_102_20" cx="0" cy="0" r="1" gradientUnits="userSpaceOnUse" gradientTransform="translate(133.934 275.594) rotate(141.774) scale(32.7287 32.3564)">
<stop stop-color="white"/>
<stop offset="1" stop-color="#DDDCDA"/>
</radialGradient>
</defs>
</svg>
